<svg width="24" height="24" viewBox="0 0 24 24" fill="none" xmlns="http://www.w3.org/2000/svg">
<path fill-rule="evenodd" clip-rule="evenodd" d="M12.0071 23.007L16.4231 9.41602H7.59106L12.0071 23.007Z" fill="white"/>
<path fill-rule="evenodd" clip-rule="evenodd" d="M12.007 23.007L7.59101 9.41602H1.4021L12.007 23.007Z" fill="white" fill-opacity="0.66"/>
<path fill-rule="evenodd" clip-rule="evenodd" d="M1.40214 9.41602L0.0601964 13.5462C-0.0622036 13.9229 0.0718535 14.3356 0.39231 14.5684L12.007 23.007L1.40214 9.41602Z" fill="white" fill-opacity="0.33"/>
<path fill-rule="evenodd" clip-rule="evenodd" d="M1.4021 9.41592H7.59101L4.93124 1.23021C4.79444 0.80895 4.19856 0.809064 4.06176 1.23021L1.4021 9.41592Z" fill="white"/>
<path fill-rule="evenodd" clip-rule="evenodd" d="M12.0071 23.007L16.4231 9.41602H22.612L12.0071 23.007Z" fill="white" fill-opacity="0.66"/>
<path fill-rule="evenodd" clip-rule="evenodd" d="M22.612 9.41602L23.9539 13.5462C24.0763 13.9229 23.9423 14.3356 23.6218 14.5684L12.0071 23.007L22.612 9.41602Z" fill="white" fill-opacity="0.33"/>
<path fill-rule="evenodd" clip-rule="evenodd" d="M22.612 9.41592H16.4231L19.0829 1.23021C19.2197 0.80895 19.8156 0.809064 19.9524 1.23021L22.612 9.41592Z" fill="white"/>
</svg>
